{
  "accessors": [
    {
      "bufferView": 2,
      "componentType": 5126,
      "count": 65532,
      "max": [
        1.3874397277832031,
        1.0328116416931152,
        1.0449211597442627
      ],
      "min": [
        -1.3874398469924927,
        -1.2600451707839966,
        -1.0
      ],
      "type": "VEC3"
    },
    {
      "bufferView": 2,
      "byteOffset": 786384,
      "componentType": 5126,
      "count": 65532,
      "max": [
        1.0,
        1.0,
        1.0
      ],
      "min": [
        -1.0,
        -1.0,
        -1.0
      ],
      "type": "VEC3"
    },
    {
      "bufferView": 1,
      "componentType": 5126,
      "count": 65532,
      "max": [
        0.7500001192092896,
        1.0
      ],
      "min": [
        0.0,
        -1.1920928955078125e-07
      ],
      "type": "VEC2"
    },
    {
      "bufferView": 0,
      "componentType": 5125,
      "count": 344421,
      "type": "SCALAR"
    },
    {
      "bufferView": 2,
      "byteOffset": 1572768,
      "componentType": 5126,
      "count": 9083,
      "max": [
        0.821439802646637,
        0.9238796830177307,
        0.7092770338058472
      ],
      "min": [
        -0.8199285864830017,
        -0.733036458492279,
        -0.9931923747062683
      ],
      "type": "VEC3"
    },
    {
      "bufferView": 2,
      "byteOffset": 1681764,
      "componentType": 5126,
      "count": 9083,
      "max": [
        0.9992412328720093,
        1.0,
        0.998562216758728
      ],
      "min": [
        -0.998562216758728,
        -0.9996846914291382,
        -0.998562216758728
      ],
      "type": "VEC3"
    },
    {
      "bufferView": 1,
      "byteOffset": 524256,
      "componentType": 5126,
      "count": 9083,
      "max": [
        0.7463650703430176,
        1.0
      ],
      "min": [
        0.0,
        0.12499988079071045
      ],
      "type": "VEC2"
    },
    {
      "bufferView": 0,
      "byteOffset": 1377684,
      "componentType": 5125,
      "count": 37185,
      "type": "SCALAR"
    },
    {
      "bufferView": 2,
      "byteOffset": 1790760,
      "componentType": 5126,
      "count": 15462,
      "max": [
        0.9513939619064331,
        -0.044017523527145386,
        0.9581809043884277
      ],
      "min": [
        -0.9512606263160706,
        -0.7762118577957153,
        -0.9473145604133606
      ],
      "type": "VEC3"
    },
    {
      "bufferView": 2,
      "byteOffset": 1976304,
      "componentType": 5126,
      "count": 15462,
      "max": [
        0.9980472326278687,
        0.9999397993087769,
        0.9980472326278687
      ],
      "min": [
        -0.9956924915313721,
        -0.9870397448539734,
        -0.9980472326278687
      ],
      "type": "VEC3"
    },
    {
      "bufferView": 1,
      "byteOffset": 596920,
      "componentType": 5126,
      "count": 15462,
      "max": [
        0.7416521906852722,
        0.8012417554855347
      ],
      "min": [
        0.2583478093147278,
        0.5180872678756714
      ],
      "type": "VEC2"
    },
    {
      "bufferView": 0,
      "byteOffset": 1526424,
      "componentType": 5125,
      "count": 81792,
      "type": "SCALAR"
    },
    {
      "bufferView": 2,
      "byteOffset": 2161848,
      "componentType": 5126,
      "count": 7667,
      "max": [
        1.2377936840057373,
        1.0328116416931152,
        0.993595540523529
      ],
      "min": [
        -1.2377934455871582,
        -1.092275619506836,
        -0.534740149974823
      ],
      "type": "VEC3"
    },
    {
      "bufferView": 2,
      "byteOffset": 2253852,
      "componentType": 5126,
      "count": 7667,
      "max": [
        1.0,
        1.0,
        1.0
      ],
      "min": [
        -1.0,
        -1.0,
        -0.9975097179412842
      ],
      "type": "VEC3"
    },
    {
      "bufferView": 1,
      "byteOffset": 720616,
      "componentType": 5126,
      "count": 7667,
      "max": [
        0.7500001192092896,
        1.0
      ],
      "min": [
        0.2083333134651184,
        0.12499988079071045
      ],
      "type": "VEC2"
    },
    {
      "bufferView": 0,
      "byteOffset": 1853592,
      "componentType": 5125,
      "count": 38238,
      "type": "SCALAR"
    },
    {
      "bufferView": 2,
      "byteOffset": 2345856,
      "componentType": 5126,
      "count": 16941,
      "max": [
        1.3675448894500732,
        0.8359057903289795,
        1.0449211597442627
      ],
      "min": [
        -1.3675448894500732,
        -1.2448699474334717,
        -1.0
      ],
      "type": "VEC3"
    },
    {
      "bufferView": 2,
      "byteOffset": 2549148,
      "componentType": 5126,
      "count": 16941,
      "max": [
        1.0,
        1.0,
        1.0
      ],
      "min": [
        -1.0,
        -0.9998530149459839,
        -1.0
      ],
      "type": "VEC3"
    },
    {
      "bufferView": 0,
      "byteOffset": 2006544,
      "componentType": 5125,
      "count": 87552,
      "type": "SCALAR"
    },
    {
      "bufferView": 2,
      "byteOffset": 2752440,
      "componentType": 5126,
      "count": 317,
      "max": [
        0.42349305748939514,
        0.7029783129692078,
        -0.5184134244918823
      ],
      "min": [
        -0.42349302768707275,
        -0.9455517530441284,
        -0.7463381886482239
      ],
      "type": "VEC3"
    },
    {
      "bufferView": 2,
      "byteOffset": 2756244,
      "componentType": 5126,
      "count": 317,
      "max": [
        0.9238803386688232,
        0.8046425580978394,
        -0.3424893319606781
      ],
      "min": [
        -0.9238803386688232,
        0.0,
        -1.0
      ],
      "type": "VEC3"
    },
    {
      "bufferView": 1,
      "byteOffset": 781952,
      "componentType": 5126,
      "count": 317,
      "max": [
        0.7447916865348816,
        0.8229166865348816
      ],
      "min": [
        0.6562499403953552,
        0.24999982118606567
      ],
      "type": "VEC2"
    },
    {
      "bufferView": 0,
      "byteOffset": 2356752,
      "componentType": 5125,
      "count": 1536,
      "type": "SCALAR"
    },
    {
      "bufferView": 2,
      "byteOffset": 2760048,
      "componentType": 5126,
      "count": 585,
      "max": [
        -0.24691104888916016,
        0.5611743330955505,
        -0.11569042503833771
      ],
      "min": [
        -0.6980034708976746,
        0.10566075146198273,
        -0.5400399565696716
      ],
      "type": "VEC3"
    },
    {
      "bufferView": 2,
      "byteOffset": 2767068,
      "componentType": 5126,
      "count": 585,
      "max": [
        0.9886246919631958,
        0.7715381979942322,
        0.9994598627090454
      ],
      "min": [
        -0.2544386088848114,
        -0.983447253704071,
        -0.49935829639434814
      ],
      "type": "VEC3"
    },
    {
      "bufferView": 1,
      "byteOffset": 784488,
      "componentType": 5126,
      "count": 585,
      "max": [
        0.6212499141693115,
        0.4895833134651184
      ],
      "min": [
        0.5662499070167542,
        0.3229166269302368
      ],
      "type": "VEC2"
    },
    {
      "bufferView": 0,
      "byteOffset": 2362896,
      "componentType": 5125,
      "count": 3072,
      "type": "SCALAR"
    },
    {
      "bufferView": 2,
      "byteOffset": 2774088,
      "componentType": 5126,
      "count": 2342,
      "max": [
        0.7738238573074341,
        0.703742504119873,
        0.922185480594635
      ],
      "min": [
        -0.7015995979309082,
        0.024034274742007256,
        -0.9187061786651611
      ],
      "type": "VEC3"
    },
    {
      "bufferView": 2,
      "byteOffset": 2802192,
      "componentType": 5126,
      "count": 2342,
      "max": [
        0.8811511993408203,
        0.6316266059875488,
        0.990338146686554
      ],
      "min": [
        -0.8518165349960327,
        -0.9419524669647217,
        -0.8448547720909119
      ],
      "type": "VEC3"
    },
    {
      "bufferView": 1,
      "byteOffset": 789168,
      "componentType": 5126,
      "count": 2342,
      "max": [
        0.9999067187309265,
        0.9999066591262817
      ],
      "min": [
        0.0009999987669289112,
        6.705522537231445e-05
      ],
      "type": "VEC2"
    },
    {
      "bufferView": 0,
      "byteOffset": 2375184,
      "componentType": 5125,
      "count": 12288,
      "type": "SCALAR"
    },
    {
      "bufferView": 2,
      "byteOffset": 2830296,
      "componentType": 5126,
      "count": 17777,
      "max": [
        0.9796171188354492,
        0.7968981862068176,
        1.0449211597442627
      ],
      "min": [
        -0.979617178440094,
        -0.5808264017105103,
        -0.9783667325973511
      ],
      "type": "VEC3"
    },
    {
      "bufferView": 2,
      "byteOffset": 3043620,
      "componentType": 5126,
      "count": 17777,
      "max": [
        1.0,
        1.0,
        1.0
      ],
      "min": [
        -1.0,
        -1.0,
        -1.0
      ],
      "type": "VEC3"
    },
    {
      "bufferView": 1,
      "byteOffset": 807904,
      "componentType": 5126,
      "count": 17777,
      "max": [
        0.7500000596046448,
        0.6979166269302368
      ],
      "min": [
        0.2499999701976776,
        0.25
      ],
      "type": "VEC2"
    },
    {
      "bufferView": 0,
      "byteOffset": 2424336,
      "componentType": 5125,
      "count": 94176,
      "type": "SCALAR"
    }
  ],
  "asset": {
    "extras": {
      "author": "VertaScan (https://sketchfab.com/VertaScan)",
      "license": "CC-BY-4.0 (http://creativecommons.org/licenses/by/4.0/)",
      "source": "https://sketchfab.com/3d-models/bubble-space-ship-7aedf8b6ec24414c86b62486a7f02852",
      "title": "Bubble Space Ship"
    },
    "generator": "Sketchfab-12.67.0",
    "version": "2.0"
  },
  "bufferViews": [
    {
      "buffer": 0,
      "byteLength": 2801040,
      "name": "floatBufferViews",
      "target": 34963
    },
    {
      "buffer": 0,
      "byteLength": 950120,
      "byteOffset": 2801040,
      "byteStride": 8,
      "name": "floatBufferViews",
      "target": 34962
    },
    {
      "buffer": 0,
      "byteLength": 3256944,
      "byteOffset": 3751160,
      "byteStride": 12,
      "name": "floatBufferViews",
      "target": 34962
    }
  ],
  "buffers": [
    {
      "byteLength": 7008104,
      "uri": "scene.bin"
    }
  ],
  "extensionsUsed": [
    "KHR_texture_transform",
    "KHR_materials_clearcoat"
  ],
  "images": [
    {
      "uri": "textures/bmat1_baseColor.jpeg"
    },
    {
      "uri": "textures/control_baseColor.png"
    },
    {
      "uri": "textures/control_metallicRoughness.png"
    }
  ],
  "materials": [
    {
      "doubleSided": true,
      "extensions": {
        "KHR_materials_clearcoat": {
          "clearcoatFactor": 0.0772727,
          "clearcoatRoughnessFactor": 0.0709091
        }
      },
      "name": "bmat1",
      "pbrMetallicRoughness": {
        "baseColorTexture": {
          "extensions": {
            "KHR_texture_transform": {
              "scale": [
                3,
                3
              ]
            }
          },
          "index": 0
        },
        "roughnessFactor": 0.575802
      }
    },
    {
      "alphaMode": "BLEND",
      "doubleSided": true,
      "name": "glass",
      "pbrMetallicRoughness": {
        "baseColorFactor": [
          0.00807586,
          0.00807586,
          0.00807586,
          0.827102132323466
        ],
        "metallicFactor": 0.419118,
        "roughnessFactor": 0.0
      }
    },
    {
      "alphaMode": "BLEND",
      "doubleSided": true,
      "emissiveFactor": [
        1.0,
        1.0,
        1.0
      ],
      "name": "lights1",
      "pbrMetallicRoughness": {
        "baseColorFactor": [
          0.08435054324246084,
          0.40370877993329746,
          0.7010378165636661,
          0.6389519520634546
        ],
        "metallicFactor": 0.6935761979453934
      }
    },
    {
      "doubleSided": true,
      "name": "trim",
      "pbrMetallicRoughness": {
        "baseColorFactor": [
          0.0247854,
          0.0227651,
          0.0245948,
          1.0
        ],
        "roughnessFactor": 0.20802734566149297
      }
    },
    {
      "doubleSided": true,
      "emissiveFactor": [
        1.0,
        1.0,
        1.0
      ],
      "name": "light2",
      "pbrMetallicRoughness": {
        "baseColorFactor": [
          1.0,
          0.308225284885889,
          0.004220366466787754,
          1.0
        ]
      }
    },
    {
      "doubleSided": true,
      "name": "seat",
      "pbrMetallicRoughness": {
        "baseColorFactor": [
          0.8,
          0.0,
          0.0150999,
          1.0
        ],
        "metallicFactor": 0.0,
        "roughnessFactor": 0.5
      }
    },
    {
      "doubleSided": true,
      "emissiveFactor": [
        1.0,
        1.0,
        1.0
      ],
      "emissiveTexture": {
        "index": 1
      },
      "name": "control",
      "pbrMetallicRoughness": {
        "baseColorTexture": {
          "extensions": {
            "KHR_texture_transform": {
              "scale": [
                6.0000000000000036,
                6.0000000000000036
              ]
            }
          },
          "index": 1
        },
        "metallicRoughnessTexture": {
          "index": 2
        },
        "roughnessFactor": 0.4872179357247357
      }
    },
    {
      "doubleSided": true,
      "name": "steel2",
      "pbrMetallicRoughness": {
        "baseColorFactor": [
          0.016068,
          0.016068,
          0.016068,
          1.0
        ],
        "roughnessFactor": 0.822314
      }
    }
  ],
  "meshes": [
    {
      "name": "Object_0",
      "primitives": [
        {
          "attributes": {
            "NORMAL": 1,
            "POSITION": 0,
            "TEXCOORD_0": 2
          },
          "indices": 3,
          "material": 0,
          "mode": 4
        }
      ]
    },
    {
      "name": "Object_1",
      "primitives": [
        {
          "attributes": {
            "NORMAL": 5,
            "POSITION": 4,
            "TEXCOORD_0": 6
          },
          "indices": 7,
          "material": 0,
          "mode": 4
        }
      ]
    },
    {
      "name": "Object_2",
      "primitives": [
        {
          "attributes": {
            "NORMAL": 9,
            "POSITION": 8,
            "TEXCOORD_0": 10
          },
          "indices": 11,
          "material": 1,
          "mode": 4
        }
      ]
    },
    {
      "name": "Object_3",
      "primitives": [
        {
          "attributes": {
            "NORMAL": 13,
            "POSITION": 12,
            "TEXCOORD_0": 14
          },
          "indices": 15,
          "material": 2,
          "mode": 4
        }
      ]
    },
    {
      "name": "Object_4",
      "primitives": [
        {
          "attributes": {
            "NORMAL": 17,
            "POSITION": 16
          },
          "indices": 18,
          "material": 3,
          "mode": 4
        }
      ]
    },
    {
      "name": "Object_5",
      "primitives": [
        {
          "attributes": {
            "NORMAL": 20,
            "POSITION": 19,
            "TEXCOORD_0": 21
          },
          "indices": 22,
          "material": 4,
          "mode": 4
        }
      ]
    },
    {
      "name": "Object_6",
      "primitives": [
        {
          "attributes": {
            "NORMAL": 24,
            "POSITION": 23,
            "TEXCOORD_0": 25
          },
          "indices": 26,
          "material": 5,
          "mode": 4
        }
      ]
    },
    {
      "name": "Object_7",
      "primitives": [
        {
          "attributes": {
            "NORMAL": 28,
            "POSITION": 27,
            "TEXCOORD_0": 29
          },
          "indices": 30,
          "material": 6,
          "mode": 4
        }
      ]
    },
    {
      "name": "Object_8",
      "primitives": [
        {
          "attributes": {
            "NORMAL": 32,
            "POSITION": 31,
            "TEXCOORD_0": 33
          },
          "indices": 34,
          "material": 7,
          "mode": 4
        }
      ]
    }
  ],
  "nodes": [
    {
      "children": [
        1
      ],
      "matrix": [
        1.0,
        0.0,
        0.0,
        0.0,
        0.0,
        2.220446049250313e-16,
        -1.0,
        0.0,
        0.0,
        1.0,
        2.220446049250313e-16,
        0.0,
        0.0,
        0.0,
        0.0,
        1.0
      ],
      "name": "Sketchfab_model"
    },
    {
      "children": [
        2
      ],
      "name": "root"
    },
    {
      "children": [
        3
      ],
      "matrix": [
        1.0,
        0.0,
        0.0,
        0.0,
        0.0,
        2.220446049250313e-16,
        1.0,
        0.0,
        0.0,
        -1.0,
        2.220446049250313e-16,
        0.0,
        0.0,
        0.0,
        0.0,
        1.0
      ],
      "name": "GLTF_SceneRootNode"
    },
    {
      "children": [
        4,
        5,
        6,
        7,
        8,
        9,
        10,
        11,
        12
      ],
      "matrix": [
        -0.0,
        -0.0,
        1.0,
        -0.0,
        -0.0,
        -1.0,
        0.0,
        -0.0,
        -0.9999997615814209,
        -0.0,
        0.0,
        -0.0,
        0.0,
        2.2965476512908936,
        -0.08029571175575256,
        1.0
      ],
      "name": "Sphere_0"
    },
    {
      "mesh": 0,
      "name": "Object_4"
    },
    {
      "mesh": 1,
      "name": "Object_5"
    },
    {
      "mesh": 2,
      "name": "Object_6"
    },
    {
      "mesh": 3,
      "name": "Object_7"
    },
    {
      "mesh": 4,
      "name": "Object_8"
    },
    {
      "mesh": 5,
      "name": "Object_9"
    },
    {
      "mesh": 6,
      "name": "Object_10"
    },
    {
      "mesh": 7,
      "name": "Object_11"
    },
    {
      "mesh": 8,
      "name": "Object_12"
    }
  ],
  "samplers": [
    {
      "magFilter": 9729,
      "minFilter": 9987,
      "wrapS": 10497,
      "wrapT": 10497
    }
  ],
  "scene": 0,
  "scenes": [
    {
      "name": "Sketchfab_Scene",
      "nodes": [
        0
      ]
    }
  ],
  "textures": [
    {
      "sampler": 0,
      "source": 0
    },
    {
      "sampler": 0,
      "source": 1
    },
    {
      "sampler": 0,
      "source": 2
    }
  ]
}
