{
  "accessors": [
    {
      "bufferView": 2,
      "componentType": 5126,
      "count": 65532,
      "max": [
        4.585729122161865,
        2.640268087387085,
        2.682547092437744
      ],
      "min": [
        -4.594694137573242,
        -4.585729122161865,
        0.6123949885368347
      ],
      "type": "VEC3"
    },
    {
      "bufferView": 2,
      "byteOffset": 786384,
      "componentType": 5126,
      "count": 65532,
      "max": [
        0.9364684224128723,
        0.9694759845733643,
        0.9999984502792358
      ],
      "min": [
        -0.9368711113929749,
        -0.9742382168769836,
        0.1878022700548172
      ],
      "type": "VEC3"
    },
    {
      "bufferView": 1,
      "componentType": 5126,
      "count": 65532,
      "max": [
        0.9806370139122009,
        0.9702180027961731
      ],
      "min": [
        0.21643400192260742,
        0.005222999956458807
      ],
      "type": "VEC2"
    },
    {
      "bufferView": 0,
      "componentType": 5125,
      "count": 357522,
      "type": "SCALAR"
    },
    {
      "bufferView": 2,
      "byteOffset": 1572768,
      "componentType": 5126,
      "count": 65532,
      "max": [
        4.585729122161865,
        4.594694137573242,
        2.470047950744629
      ],
      "min": [
        -2.5864760875701904,
        -4.514007091522217,
        0.4423060119152069
      ],
      "type": "VEC3"
    },
    {
      "bufferView": 2,
      "byteOffset": 2359152,
      "componentType": 5126,
      "count": 65532,
      "max": [
        0.969656765460968,
        0.9623311161994934,
        0.9999983310699463
      ],
      "min": [
        -0.9560533165931702,
        -0.9245645999908447,
        0.20309221744537354
      ],
      "type": "VEC3"
    },
    {
      "bufferView": 1,
      "byteOffset": 524256,
      "componentType": 5126,
      "count": 65532,
      "max": [
        0.9378380179405212,
        0.9999009966850281
      ],
      "min": [
        0.026413999497890472,
        0.24030999839305878
      ],
      "type": "VEC2"
    },
    {
      "bufferView": 0,
      "byteOffset": 1430088,
      "componentType": 5125,
      "count": 351903,
      "type": "SCALAR"
    },
    {
      "bufferView": 2,
      "byteOffset": 3145536,
      "componentType": 5126,
      "count": 65532,
      "max": [
        4.585729122161865,
        4.594694137573242,
        2.762042999267578
      ],
      "min": [
        -4.594694137573242,
        -4.514007091522217,
        0.4964599907398224
      ],
      "type": "VEC3"
    },
    {
      "bufferView": 2,
      "byteOffset": 3931920,
      "componentType": 5126,
      "count": 65532,
      "max": [
        0.969656765460968,
        0.9484100937843323,
        0.9999998807907104
      ],
      "min": [
        -0.9468977451324463,
        -0.9315834045410156,
        0.24318915605545044
      ],
      "type": "VEC3"
    },
    {
      "bufferView": 1,
      "byteOffset": 1048512,
      "componentType": 5126,
      "count": 65532,
      "max": [
        0.9514849781990051,
        0.9993199706077576
      ],
      "min": [
        9.899999713525176e-05,
        0.008918000385165215
      ],
      "type": "VEC2"
    },
    {
      "bufferView": 0,
      "byteOffset": 2837700,
      "componentType": 5125,
      "count": 336744,
      "type": "SCALAR"
    },
    {
      "bufferView": 2,
      "byteOffset": 4718304,
      "componentType": 5126,
      "count": 65532,
      "max": [
        3.8147170543670654,
        4.585729122161865,
        2.762377977371216
      ],
      "min": [
        -4.594694137573242,
        -4.558833122253418,
        0.5739099979400635
      ],
      "type": "VEC3"
    },
    {
      "bufferView": 2,
      "byteOffset": 5504688,
      "componentType": 5126,
      "count": 65532,
      "max": [
        0.952294111251831,
        0.9490976333618164,
        0.9999998807907104
      ],
      "min": [
        -0.9402624368667603,
        -0.9572188258171082,
        0.22169309854507446
      ],
      "type": "VEC3"
    },
    {
      "bufferView": 1,
      "byteOffset": 1572768,
      "componentType": 5126,
      "count": 65532,
      "max": [
        0.972046971321106,
        0.8797000050544739
      ],
      "min": [
        0.0008999999845400453,
        9.899999713525176e-05
      ],
      "type": "VEC2"
    },
    {
      "bufferView": 0,
      "byteOffset": 4184676,
      "componentType": 5125,
      "count": 334653,
      "type": "SCALAR"
    },
    {
      "bufferView": 2,
      "byteOffset": 6291072,
      "componentType": 5126,
      "count": 60424,
      "max": [
        4.514007091522217,
        4.415389060974121,
        2.7460360527038574
      ],
      "min": [
        -4.594694137573242,
        -4.576763153076172,
        0.6745579838752747
      ],
      "type": "VEC3"
    },
    {
      "bufferView": 2,
      "byteOffset": 7016160,
      "componentType": 5126,
      "count": 60424,
      "max": [
        0.9551059007644653,
        0.9694759845733643,
        0.9999927282333374
      ],
      "min": [
        -0.9387727975845337,
        -0.9726265072822571,
        0.1805936098098755
      ],
      "type": "VEC3"
    },
    {
      "bufferView": 1,
      "byteOffset": 2097024,
      "componentType": 5126,
      "count": 60424,
      "max": [
        0.979885995388031,
        0.9357190132141113
      ],
      "min": [
        0.042892999947071075,
        0.003742000088095665
      ],
      "type": "VEC2"
    },
    {
      "bufferView": 0,
      "byteOffset": 5523288,
      "componentType": 5125,
      "count": 273417,
      "type": "SCALAR"
    }
  ],
  "asset": {
    "extras": {
      "author": "Pukar Shiwakoti (https://sketchfab.com/PukarS)",
      "license": "CC-BY-4.0 (http://creativecommons.org/licenses/by/4.0/)",
      "source": "https://sketchfab.com/3d-models/mars-landscape-b860a820dd5048cfa8418b65eb74f866",
      "title": "Mars Landscape"
    },
    "generator": "Sketchfab-16.64.0",
    "version": "2.0"
  },
  "bufferViews": [
    {
      "buffer": 0,
      "byteLength": 6616956,
      "name": "floatBufferViews",
      "target": 34963
    },
    {
      "buffer": 0,
      "byteLength": 2580416,
      "byteOffset": 6616956,
      "byteStride": 8,
      "name": "floatBufferViews",
      "target": 34962
    },
    {
      "buffer": 0,
      "byteLength": 7741248,
      "byteOffset": 9197372,
      "byteStride": 12,
      "name": "floatBufferViews",
      "target": 34962
    }
  ],
  "buffers": [
    {
      "byteLength": 16938620,
      "uri": "scene.bin"
    }
  ],
  "extensionsUsed": [
    "KHR_materials_specular"
  ],
  "images": [
    {
      "uri": "textures/Material.001_baseColor.png"
    }
  ],
  "materials": [
    {
      "doubleSided": true,
      "extensions": {
        "KHR_materials_specular": {
          "specularColorFactor": [
            1.0,
            1.0,
            1.0
          ],
          "specularFactor": 0.0
        }
      },
      "name": "Material.001",
      "pbrMetallicRoughness": {
        "baseColorTexture": {
          "index": 0
        },
        "metallicFactor": 0.0
      }
    }
  ],
  "meshes": [
    {
      "name": "Object_0",
      "primitives": [
        {
          "attributes": {
            "NORMAL": 1,
            "POSITION": 0,
            "TEXCOORD_0": 2
          },
          "indices": 3,
          "material": 0,
          "mode": 4
        }
      ]
    },
    {
      "name": "Object_1",
      "primitives": [
        {
          "attributes": {
            "NORMAL": 5,
            "POSITION": 4,
            "TEXCOORD_0": 6
          },
          "indices": 7,
          "material": 0,
          "mode": 4
        }
      ]
    },
    {
      "name": "Object_2",
      "primitives": [
        {
          "attributes": {
            "NORMAL": 9,
            "POSITION": 8,
            "TEXCOORD_0": 10
          },
          "indices": 11,
          "material": 0,
          "mode": 4
        }
      ]
    },
    {
      "name": "Object_3",
      "primitives": [
        {
          "attributes": {
            "NORMAL": 13,
            "POSITION": 12,
            "TEXCOORD_0": 14
          },
          "indices": 15,
          "material": 0,
          "mode": 4
        }
      ]
    },
    {
      "name": "Object_4",
      "primitives": [
        {
          "attributes": {
            "NORMAL": 17,
            "POSITION": 16,
            "TEXCOORD_0": 18
          },
          "indices": 19,
          "material": 0,
          "mode": 4
        }
      ]
    }
  ],
  "nodes": [
    {
      "children": [
        1
      ],
      "matrix": [
        1.0,
        0.0,
        0.0,
        0.0,
        0.0,
        2.220446049250313e-16,
        -1.0,
        0.0,
        0.0,
        1.0,
        2.220446049250313e-16,
        0.0,
        0.0,
        0.0,
        0.0,
        1.0
      ],
      "name": "Sketchfab_model"
    },
    {
      "children": [
        2,
        3,
        4,
        5,
        6
      ],
      "name": "Mars Landscape.obj.cleaner.materialmerger.gles"
    },
    {
      "mesh": 0,
      "name": "Object_2"
    },
    {
      "mesh": 1,
      "name": "Object_3"
    },
    {
      "mesh": 2,
      "name": "Object_4"
    },
    {
      "mesh": 3,
      "name": "Object_5"
    },
    {
      "mesh": 4,
      "name": "Object_6"
    }
  ],
  "samplers": [
    {
      "magFilter": 9729,
      "minFilter": 9987,
      "wrapS": 10497,
      "wrapT": 10497
    }
  ],
  "scene": 0,
  "scenes": [
    {
      "name": "Sketchfab_Scene",
      "nodes": [
        0
      ]
    }
  ],
  "textures": [
    {
      "sampler": 0,
      "source": 0
    }
  ]
}
